<mxfile host="app.diagrams.net" modified="2021-04-04T16:09:30.111Z" agent="5.0 (X11)" etag="BncEHijlkIBb1Tn0x35D" version="14.5.7" type="github">
  <diagram id="uzqernyKfh6pWcLg8lgZ" name="Page-1">
    <mxGraphModel dx="1422" dy="804" grid="1" gridSize="10" guides="1" tooltips="1" connect="1" arrows="1" fold="1" page="1" pageScale="1" pageWidth="850" pageHeight="1100" math="0" shadow="0">
      <root>
        <mxCell id="0" />
        <mxCell id="1" parent="0" />
        <mxCell id="qUvDU30d2znPsJFL0WZq-1" value="Account Controller" style="swimlane;fontStyle=1;align=center;verticalAlign=top;childLayout=stackLayout;horizontal=1;startSize=26;horizontalStack=0;resizeParent=1;resizeParentMax=0;resizeLast=0;collapsible=1;marginBottom=0;" vertex="1" parent="1">
          <mxGeometry x="210" y="200" width="390" height="130" as="geometry" />
        </mxCell>
        <mxCell id="qUvDU30d2znPsJFL0WZq-2" value="- accountService: AccountService&#xa;- userRepository: UserRepository&#xa;" style="text;strokeColor=none;fillColor=none;align=left;verticalAlign=top;spacingLeft=4;spacingRight=4;overflow=hidden;rotatable=0;points=[[0,0.5],[1,0.5]];portConstraint=eastwest;" vertex="1" parent="qUvDU30d2znPsJFL0WZq-1">
          <mxGeometry y="26" width="390" height="44" as="geometry" />
        </mxCell>
        <mxCell id="qUvDU30d2znPsJFL0WZq-3" value="" style="line;strokeWidth=1;fillColor=none;align=left;verticalAlign=middle;spacingTop=-1;spacingLeft=3;spacingRight=3;rotatable=0;labelPosition=right;points=[];portConstraint=eastwest;" vertex="1" parent="qUvDU30d2znPsJFL0WZq-1">
          <mxGeometry y="70" width="390" height="8" as="geometry" />
        </mxCell>
        <mxCell id="qUvDU30d2znPsJFL0WZq-4" value="+ getAllAccount(): ResponseEntity&#xa;+ updateAccount(id: Long, request: UserPayLoad): ResponseEntity&#xa;+ deleteAccount(id: Long): ResponseEntity&#xa;" style="text;strokeColor=none;fillColor=none;align=left;verticalAlign=top;spacingLeft=4;spacingRight=4;overflow=hidden;rotatable=0;points=[[0,0.5],[1,0.5]];portConstraint=eastwest;" vertex="1" parent="qUvDU30d2znPsJFL0WZq-1">
          <mxGeometry y="78" width="390" height="52" as="geometry" />
        </mxCell>
      </root>
    </mxGraphModel>
  </diagram>
</mxfile>
